<?xml version="1.0" encoding="utf-8"?>
<svg version="1.1" id="group" xmlns="http://www.w3.org/2000/svg" xmlns:xlink="http://www.w3.org/1999/xlink" x="0px" y="0px"
	 viewBox="0 0 1024 1024" style="enable-background:new 0 0 1024 1024;" xml:space="preserve">
<style type="text/css">
	.st0{fill:url(#gradient_00000094613467593362728830000002301047705335726727_);}
	.st1{fill:#EEEEEE;}
</style>
<linearGradient id="gradient_00000012432866270921020370000014096956420908196541_" gradientUnits="userSpaceOnUse" x1="162.2975" y1="-93.7025" x2="861.7025" y2="1117.7025">
	<stop  offset="0" style="stop-color:#CE2B29"/>
	<stop  offset="0.33" style="stop-color:#B92022"/>
	<stop  offset="0.66" style="stop-color:#A3141A"/>
	<stop  offset="1" style="stop-color:#8E0913"/>
</linearGradient>
<rect id="gradient" x="0" y="0" style="fill:url(#gradient_00000012432866270921020370000014096956420908196541_);" width="1024" height="1024"/>
<g id="letter">
	<path class="st1" d="M449.8,571.32c-3.47,0-5.88-3.44-4.7-6.7l62.17-172.17c1.59-4.41,7.83-4.4,9.41,0.01l23.66,66.15
		c0.71,1.99,2.6,3.32,4.71,3.32l88.22-0.04c3.48,0,5.9-3.47,4.69-6.74l-58.65-158.45c-1.33-4.88-4-9.1-8-12.66
		c-4-3.55-9.56-5.33-16.66-5.33h-85.32c-7.11,0-12.66,1.78-16.66,5.33c-4,3.56-6.67,7.78-8,12.66L286.05,725.29
		c-0.45,1.78-0.67,3.78-0.67,6c0,3.56,1.33,6.78,4,9.67c2.67,2.9,6,4.33,10,4.33h69.32c6.67,0,11.55-1.55,14.66-4.67
		c3.1-3.1,5.1-6,6-8.66l26.2-68.23c1.48-3.86,5.2-6.42,9.34-6.42h63.79c2.77,0,5.01-2.25,5-5.02l-0.28-75.98
		c-0.01-2.75-2.25-4.98-5-4.98H449.8z"/>
	<path class="st1" d="M737.95,725.29l-82.74-223.53c-0.73-1.96-2.6-3.27-4.69-3.26l-88.81,0.04c-3.46,0-5.87,3.43-4.71,6.68
		l21.25,59.42c1.16,3.26-1.25,6.68-4.71,6.68H535.3c-2.76,0-5,2.24-5,5v75.98c0,2.76,2.24,5,5,5h63.81c4.14,0,7.85,2.55,9.34,6.42
		l26.2,68.23c0.89,2.67,2.88,5.56,6,8.66c3.1,3.11,8,4.67,14.66,4.67h69.32c4,0,7.33-1.44,10-4.33c2.67-2.88,4-6.1,4-9.67
		C738.62,729.07,738.39,727.07,737.95,725.29z"/>
</g>
</svg>
